<?xml version="1.0" encoding="UTF-8"?>
<svg id="Capa_1" xmlns="http://www.w3.org/2000/svg" version="1.1" viewBox="0 0 16 16">
  <!-- Generator: Adobe Illustrator 29.0.0, SVG Export Plug-In . SVG Version: 2.1.0 Build 186)  -->
  <defs>
    <style>
      .st0 {
        fill: #fff;
      }
    </style>
  </defs>
  <path d="M6.5,14.5v-3.5c0-.2.2-.5.5-.5h2c.2,0,.5.2.5.5v3.5c0,.3.2.5.5.5h4c.3,0,.5-.2.5-.5v-7c0-.1,0-.3-.1-.4l-1.4-1.4v-3.3c0-.3-.2-.5-.5-.5h-1c-.3,0-.5.2-.5.5v1.3l-2.6-2.6c-.2-.2-.5-.2-.7,0,0,0,0,0,0,0L1.6,7.1c0,0-.1.2-.1.4v7c0,.3.2.5.5.5h4c.3,0,.5-.2.5-.5"/>
  <polyline class="st0" points="11 3.8 13.1 5.9 13.1 1.9 10.9 1.9 10.9 3.7"/>
</svg>