<?xml version="1.0" encoding="UTF-8"?>
<svg id="Capa_1" xmlns="http://www.w3.org/2000/svg" version="1.1" viewBox="0 0 16 16">
  <!-- Generator: Adobe Illustrator 29.0.0, SVG Export Plug-In . SVG Version: 2.1.0 Build 186)  -->
  <defs>
    <style>
      .st0 {
        fill: #fff;
      }
    </style>
  </defs>
  <path d="M8.2,16.1c4.1,0,7.5-3.4,7.5-7.5,0-3.4-2.3-6.4-5.5-7.2.2-.5-.2-1.1-.7-1.2,0,0-.2,0-.3,0h-2c-.6,0-1,.4-1,1,0,0,0,.2,0,.3C2.2,2.5-.2,6.6.9,10.6c.9,3.3,3.9,5.5,7.2,5.5M14.7,8.6c0,3.6-2.9,6.5-6.5,6.5S1.7,12.2,1.7,8.6s2.9-6.5,6.5-6.5,6.5,2.9,6.5,6.5"/>
  <path d="M6.9,7.4l4.9-2.8-2.8,4.9-4.9,2.8,2.8-4.9h0Z"/>
  <path class="st0" d="M6.2,1.4s1.7-.5,3.9,0c0,0,.6-1.6-1.7-1.3,0,0-2.8-.6-2.2,1.3Z"/>
</svg>