<?xml version="1.0" encoding="UTF-8"?>
<svg id="Capa_1" xmlns="http://www.w3.org/2000/svg" version="1.1" viewBox="0 0 16 16">
  <!-- Generator: Adobe Illustrator 29.0.0, SVG Export Plug-In . SVG Version: 2.1.0 Build 186)  -->
  <defs>
    <style>
      .st0 {
        fill: #fff;
        stroke: #000;
        stroke-miterlimit: 10;
      }
    </style>
  </defs>
  <path class="st0" d="M1.4,8C1.4,4.3,4.3,1.6,8,1.6s6.6,2.7,6.6,6.4-2.9,6.4-6.6,6.4-1.3,0-1.9-.3c-.1,0-.2,0-.4,0l-1.3.6c-.3.1-.6,0-.7-.3,0,0,0-.1,0-.2v-1.2c0-.1-.1-.3-.2-.4-1.3-1.2-2.1-2.8-2.1-4.8M6,6.8l-2,3.1c-.2.3.2.6.5.4l2.1-1.6c.1-.1.3-.1.5,0l1.6,1.2c.4.3,1.1.2,1.4-.2,0,0,0,0,0,0l2-3.1c.2-.3-.2-.6-.5-.4l-2.1,1.6c-.1.1-.3.1-.5,0l-1.6-1.2c-.4-.3-1.1-.2-1.4.2,0,0,0,0,0,0h0Z"/>
</svg>