<?xml version="1.0" encoding="UTF-8"?>
<svg id="Capa_1" xmlns="http://www.w3.org/2000/svg" version="1.1" viewBox="0 0 16 16">
  <!-- Generator: Adobe Illustrator 29.0.0, SVG Export Plug-In . SVG Version: 2.1.0 Build 186)  -->
  <path d="M3,4.1c0-.2.2-.4.5-.4h9c.3,0,.5.2.5.4v9.9c0,.2-.2.4-.5.4H3.5c-.3,0-.5-.2-.5-.4V4.1ZM2,14c0,.6.7,1.1,1.5,1.1h9c.8,0,1.5-.5,1.5-1.1V4.1c0-.6-.6-1.1-1.5-1.1H3.5c-.8,0-1.5.5-1.5,1.1v9.9Z"/>
  <path d="M5.5,12.7c-.3,0-.5,0-.5-.2v-3.2c0,0,.2-.2.5-.2s.5,0,.5.2v3.2c0,0-.2.2-.5.2M8,12.7c-.3,0-.5-.2-.5-.4v-6.7c0-.2.2-.4.5-.4s.5.2.5.4v6.7c0,.2-.2.4-.5.4M10.5,12.8c-.3,0-.5-.2-.5-.4v-4.9c0-.2.2-.4.5-.4s.5.2.5.4v4.9c0,.2-.2.4-.5.4"/>
</svg>